# xmcd
#
# Track frame offsets:
#	150
#	15657
#	23574
#	34016
#	71411
#	79214
#	88743
#	95788
#	113893
#	130858
#	153618
#	164207
#
# Disc length: 2366 seconds
#
# Revision: 0
# Processed by: cddbd v1.4PL0 Copyright (c) Steve Scherf et al.
# Submitted via: EasyCDDAExtractor 4.6.9.1
#
DISCID=9b093c0c
DTITLE=Marty Robbins - The Drifter
DYEAR=1995
DGENRE=Country
TTITLE0=Meet Me Tonight In Laredo
TTITLE1=The Wind Goes
TTITLE2=Cry Stampede
TTITLE3=Feleena (From El Paso)
TTITLE4=Fastest Gun Around
TTITLE5=Saddle Tramp
TTITLE6=Never Tie Me Down
TTITLE7=Cottonwood Tree
TTITLE8=Oh, Virginia
TTITLE9=Mr Shorty
TTITLE10=Take Me Back To The Prairie
TTITLE11=The Cowboy In The Continental Suit
EXTD=
EXTT0=
EXTT1=
EXTT2=
EXTT3=
EXTT4=
EXTT5=
EXTT6=
EXTT7=
EXTT8=
EXTT9=
EXTT10=
EXTT11=
PLAYORDER=
